PathFileType	4	(X/Y/Z)	/Users/itak/Documents/Research/Walk-IL/dataset/trc/00568_00009.trc
DataRate	CameraRate	NumFrames	NumMarkers	Units	OrigDataRate	OrigDataStartFrame	OrigNumFrames
100.000000	100.000000	4	56	mm	100.000000	0	528
Frame#	Time	RPSI			LPSI			L3			STRN			T10			C7			CLAV			RBAK			LBAK			LSHO			LUPA			LAEL			LAOL			LWTS			LWPS			LFRA			LIFD			LHPS			LHTS			RSHO			RUPA			RAEL			RAOL			RWPS			RFRA			RIFD			RHTS			RHPS			RBHD			LFHD			RFHD			LBHD			LHIP			RHIP			RASI			LASI			LKNE			LTHI			LANK			LTIP			LTOE			LMT1			LMT5			LHEE			RKNE			RTHI			RANK			RTIP			RTOE			RMT1			RMT5			RHEE			RWTS			*53			*54			*55			
		X1	Y1	Z1	X2	Y2	Z2	X3	Y3	Z3	X4	Y4	Z4	X5	Y5	Z5	X6	Y6	Z6	X7	Y7	Z7	X8	Y8	Z8	X9	Y9	Z9	X10	Y10	Z10	X11	Y11	Z11	X12	Y12	Z12	X13	Y13	Z13	X14	Y14	Z14	X15	Y15	Z15	X16	Y16	Z16	X17	Y17	Z17	X18	Y18	Z18	X19	Y19	Z19	X20	Y20	Z20	X21	Y21	Z21	X22	Y22	Z22	X23	Y23	Z23	X24	Y24	Z24	X25	Y25	Z25	X26	Y26	Z26	X27	Y27	Z27	X28	Y28	Z28	X29	Y29	Z29	X30	Y30	Z30	X31	Y31	Z31	X32	Y32	Z32	X33	Y33	Z33	X34	Y34	Z34	X35	Y35	Z35	X36	Y36	Z36	X37	Y37	Z37	X38	Y38	Z38	X39	Y39	Z39	X40	Y40	Z40	X41	Y41	Z41	X42	Y42	Z42	X43	Y43	Z43	X44	Y44	Z44	X45	Y45	Z45	X46	Y46	Z46	X47	Y47	Z47	X48	Y48	Z48	X49	Y49	Z49	X50	Y50	Z50	X51	Y51	Z51	X52	Y52	Z52	X53	Y53	Z53	X54	Y54	Z54	X55	Y55	Z55	X56	Y56	Z56	

1	0	-1228.2060546875	1016.858520507812	-107.1781158447266	-1221.380493164062	1019.724975585938	-240.4071197509766	-1219.411376953125	1107.155151367188	-177.8580169677734	-988.7196655273438	1295.09619140625	-180.8142242431641	-1229.996826171875	1233.05029296875	-179.7075500488281	-1182.292114257812	1507.359619140625	-168.2410583496094	-1008.585571289062	1406.09228515625	-180.6565856933594	-1253.905517578125	1381.570190429688	-82.14244079589844	-1217.150756835938	1454.495361328125	-259.5343933105469	-1120.79931640625	1479.242797851562	-344.6632995605469	-1134.92041015625	1351.923461914062	-423.3304138183594	-1120.71923828125	1130.884643554688	-446.6162414550781	-1204.716186523438	1124.960571289062	-391.9278869628906	-1040.631713867188	882.784912109375	-404.6680908203125	-1088.585815429688	864.1513061523438	-475.3953552246094	-1101.796752929688	1043.704345703125	-455.152099609375	-1065.038208007812	714.6412963867188	-404.7995300292969	-1084.921875	803.8370361328125	-468.1993408203125	-1024.273559570312	807.2723388671875	-430.6766967773438	-1123.232177734375	1468.340209960938	-12.71970748901367	-1140.256469726562	1402.18994140625	54.60817337036133	-1137.708984375	1111.833129882812	98.20267486572266	-1192.803344726562	1095.206420898438	72.19748687744141	-1049.66650390625	869.2393188476562	117.8574676513672	-1127.991455078125	1056	104.8628921508789	-1005.097534179688	716.8491821289062	47.20283508300781	-979.1768188476562	797.5485229492188	62.98579406738281	-1033.71484375	794.4432373046875	113.6986389160156	-1121.707885742188	1683.210083007812	-113.8113479614258	-944.7625732421875	1716.150268554688	-219.3637542724609	-988.368408203125	1712.62451171875	-81.51812744140625	-1064.979248046875	1685.906982421875	-269.7264709472656	-1091.662719726562	937.5299072265625	-368.3273620605469	-1111.998657226562	941.006103515625	18.5595645904541	-1016.888793945312	972.9736328125	-35.20810699462891	-1013.721008300781	961.7658081054688	-313.2906799316406	-1085.281005859375	492.5553588867188	-303.2500915527344	-1076.4462890625	656.6610717773438	-342.5037231445312	-1167.800537109375	27.2181510925293	-293.056884765625	-1149.880615234375	249.6377410888672	-307.3793029785156	-955.9204711914062	38.10473251342773	-236.5085754394531	-1027.019165039062	42.97186279296875	-201.2754974365234	-1045.379028320312	31.48305320739746	-308.787353515625	-1236.55322265625	30.87113189697266	-236.3104095458984	-1102.0244140625	496.9122314453125	-28.23279762268066	-1078.486328125	785.9661254882812	16.79090881347656	-1195.248046875	38.97281646728516	-44.06871795654297	-1109.661254882812	356.4005737304688	-38.60542678833008	-973.0437622070312	37.9597282409668	-75.63370513916016	-1037.403930664062	32.95643997192383	-119.5930862426758	-1063.261474609375	40.27759552001953	-20.71603584289551	-1248.604370117188	26.43269920349121	-97.21321868896484	-1007.172546386719	889.7999267578125	49.10643768310547	nan	nan	nan	nan	nan	nan	nan	nan	nan	
2	0.01	-1228.168579101562	1016.859924316406	-107.1645278930664	-1221.365600585938	1019.716613769531	-240.3913726806641	-1219.366088867188	1107.147827148438	-177.8357238769531	-988.68798828125	1295.125854492188	-180.8522796630859	-1229.994506835938	1233.048950195312	-179.6657104492188	-1182.295776367188	1507.361083984375	-168.2371826171875	-1008.575805664062	1406.104736328125	-180.6969451904297	-1253.865600585938	1381.572875976562	-82.04761505126953	-1217.185913085938	1454.48388671875	-259.4736022949219	-1120.881469726562	1479.244018554688	-344.671142578125	-1134.922973632812	1351.90771484375	-423.3470153808594	-1120.3515625	1130.882080078125	-446.5607299804688	-1204.485961914062	1124.83837890625	-391.8936462402344	-1039.640502929688	883.106689453125	-404.3827514648438	-1087.50244140625	864.1627197265625	-475.0299987792969	-1101.2802734375	1043.750366210938	-454.9911193847656	-1064.128295898438	714.7645874023438	-404.2657470703125	-1083.655395507812	803.88671875	-467.8050231933594	-1023.429077148438	807.3790283203125	-430.11279296875	-1123.149047851562	1468.349731445312	-12.74211692810059	-1140.100219726562	1402.211791992188	54.623046875	-1137.448364257812	1111.87548828125	98.24960327148438	-1192.551635742188	1095.187133789062	72.3280029296875	-1049.203125	869.3209838867188	117.8640823364258	-1127.720581054688	1056.040161132812	104.9756393432617	-1004.615844726562	716.9727172851562	47.30963897705078	-978.8292846679688	797.7213134765625	62.89273452758789	-1033.166625976562	794.5338745117188	113.6516876220703	-1121.599609375	1683.240966796875	-113.8301544189453	-944.7598266601562	1716.0947265625	-219.4753265380859	-988.2583618164062	1712.59326171875	-81.61716461181641	-1064.987060546875	1685.889770507812	-269.7799377441406	-1091.749267578125	937.501953125	-368.3052062988281	-1111.932861328125	941.0038452148438	18.55395698547363	-1016.897033691406	972.8636474609375	-35.46776962280273	-1013.7431640625	961.7572021484375	-313.2976379394531	-1085.3037109375	492.5654907226562	-303.2619934082031	-1076.461059570312	656.6580810546875	-342.51904296875	-1167.794677734375	27.21284103393555	-293.0484924316406	-1149.856079101562	249.6348266601562	-307.3832702636719	-955.9325561523438	38.09885406494141	-236.5066223144531	-1027.012939453125	42.96527481079102	-201.2801361083984	-1045.37255859375	31.48911666870117	-308.7926025390625	-1236.552490234375	30.87191009521484	-236.309326171875	-1102.021850585938	496.90576171875	-28.21962356567383	-1078.435791015625	785.9581909179688	16.78104972839355	-1195.251098632812	38.97209930419922	-44.07175064086914	-1109.637451171875	356.4050598144531	-38.62383270263672	-973.0907592773438	37.99762344360352	-75.60802459716797	-1037.402954101562	32.96072387695312	-119.5979461669922	-1063.263061523438	40.27898788452148	-20.71169090270996	-1248.60595703125	26.43218612670898	-97.21003723144531	-1006.81884765625	889.8949584960938	49.03118133544922	nan	nan	nan	nan	nan	nan	nan	nan	nan	
3	0.02	-1228.117431640625	1016.861877441406	-107.1451568603516	-1221.349609375	1019.716186523438	-240.3806762695312	-1219.305297851562	1107.135620117188	-177.8063201904297	-988.647216796875	1295.161743164062	-180.9036407470703	-1229.988403320312	1233.046875	-179.6160278320312	-1182.302734375	1507.360473632812	-168.2305755615234	-1008.559448242188	1406.123291015625	-180.7485809326172	-1253.813720703125	1381.577270507812	-81.93476867675781	-1217.230712890625	1454.469604492188	-259.4049377441406	-1120.984252929688	1479.246826171875	-344.6805419921875	-1134.926147460938	1351.890258789062	-423.3680725097656	-1119.897705078125	1130.893920898438	-446.4909057617188	-1204.185424804688	1124.684692382812	-391.8564758300781	-1038.365966796875	883.5272216796875	-404.0026245117188	-1086.109008789062	864.195068359375	-474.5668029785156	-1100.619995117188	1043.816162109375	-454.7994079589844	-1062.942993164062	714.9307250976562	-403.5503845214844	-1082.020629882812	803.9712524414062	-467.2894897460938	-1022.322265625	807.5267944335938	-429.3636169433594	-1123.04736328125	1468.36328125	-12.76945114135742	-1139.90869140625	1402.238525390625	54.63735198974609	-1137.104736328125	1111.927368164062	98.28854370117188	-1192.243896484375	1095.1708984375	72.49601745605469	-1048.638793945312	869.423583984375	117.8875198364258	-1127.370361328125	1056.091430664062	105.1036148071289	-1004.013732910156	717.1240844726562	47.44760513305664	-978.3641357421875	797.9146118164062	62.79949951171875	-1032.478759765625	794.6484985351562	113.6105804443359	-1121.463623046875	1683.280639648438	-113.8601226806641	-944.7478637695312	1716.026611328125	-219.6161804199219	-988.1273193359375	1712.554443359375	-81.73252868652344	-1064.995727539062	1685.868896484375	-269.8473815917969	-1091.874389648438	937.4647827148438	-368.2738037109375	-1111.850463867188	941.0005493164062	18.54806900024414	-1016.945556640625	972.7128295898438	-35.74262237548828	-1013.764404296875	961.7490234375	-313.3073425292969	-1085.330810546875	492.5758056640625	-303.2772216796875	-1076.478149414062	656.65478515625	-342.5364685058594	-1167.787963867188	27.20688438415527	-293.0392761230469	-1149.82568359375	249.6277160644531	-307.385498046875	-955.9422607421875	38.09121322631836	-236.5051574707031	-1027.0068359375	42.95893859863281	-201.2852325439453	-1045.364624023438	31.49463272094727	-308.7978515625	-1236.5517578125	30.87343597412109	-236.3079681396484	-1102.01806640625	496.8992614746094	-28.20954895019531	-1078.375854492188	785.9473266601562	16.76936721801758	-1195.254028320312	38.97211074829102	-44.07507705688477	-1109.621826171875	356.4059448242188	-38.63805770874023	-973.13134765625	38.03061294555664	-75.58584594726562	-1037.40283203125	32.96576690673828	-119.6023406982422	-1063.264892578125	40.28052139282227	-20.70754051208496	-1248.60791015625	26.43135070800781	-97.20656585693359	-1006.371826171875	890.0059814453125	48.95399475097656	nan	nan	nan	nan	nan	nan	nan	nan	nan	
4	0.03	-1228.053466796875	1016.865051269531	-107.119987487793	-1221.332397460938	1019.724914550781	-240.3750915527344	-1219.229125976562	1107.117431640625	-177.7704010009766	-988.5997314453125	1295.201416015625	-180.9678955078125	-1229.977905273438	1233.043579101562	-179.5619201660156	-1182.313842773438	1507.356079101562	-168.2205810546875	-1008.535827636719	1406.14892578125	-180.8099212646484	-1253.751220703125	1381.582763671875	-81.8116455078125	-1217.283203125	1454.453002929688	-259.335205078125	-1121.1025390625	1479.251953125	-344.6907043457031	-1134.929931640625	1351.87255859375	-423.3928527832031	-1119.381591796875	1130.923828125	-446.409912109375	-1203.821044921875	1124.50439453125	-391.8222045898438	-1036.8447265625	884.0377807617188	-403.5345764160156	-1084.447509765625	864.25537109375	-474.0220031738281	-1099.838134765625	1043.902465820312	-454.5880126953125	-1061.514526367188	715.1438598632812	-402.66162109375	-1080.063110351562	804.0975952148438	-466.6647644042969	-1020.983520507812	807.7198486328125	-428.4375610351562	-1122.93212890625	1468.380859375	-12.80054569244385	-1139.692626953125	1402.269287109375	54.64879608154297	-1136.686157226562	1111.985595703125	98.31096649169922	-1191.894287109375	1095.161499023438	72.6949462890625	-1048.001586914062	869.5435180664062	117.932487487793	-1126.951171875	1056.152465820312	105.2360458374023	-1003.315673828125	717.2948608398438	47.61729431152344	-977.7898559570312	798.1171264648438	62.71672439575195	-1031.681762695312	794.7836303710938	113.5850296020508	-1121.3056640625	1683.328002929688	-113.9026870727539	-944.7242431640625	1715.948364257812	-219.7794799804688	-987.9837646484375	1712.510131835938	-81.85585784912109	-1065.004272460938	1685.846069335938	-269.9259033203125	-1092.0361328125	937.4207153320312	-368.2339782714844	-1111.754760742188	940.995849609375	18.54241943359375	-1017.048828125	972.5228271484375	-35.99620819091797	-1013.781188964844	961.7423095703125	-313.3196105957031	-1085.359985351562	492.585205078125	-303.295166015625	-1076.496704101562	656.6514282226562	-342.5545043945312	-1167.781127929688	27.20095634460449	-293.0302124023438	-1149.795043945312	249.6190795898438	-307.3875427246094	-955.9473876953125	38.08140563964844	-236.5047607421875	-1027.001220703125	42.9538459777832	-201.2898101806641	-1045.354858398438	31.49845123291016	-308.8024291992188	-1236.550903320312	30.87594604492188	-236.3064422607422	-1102.013671875	496.8931274414062	-28.20501899719238	-1078.309204101562	785.93359375	16.75642204284668	-1195.256713867188	38.97294616699219	-44.07857513427734	-1109.619262695312	356.4024047851562	-38.64577865600586	-973.158447265625	38.05302810668945	-75.57108306884766	-1037.40380859375	32.97132873535156	-119.6061019897461	-1063.2666015625	40.28173446655273	-20.70475387573242	-1248.609985351562	26.43037033081055	-97.203369140625	-1005.844421386719	890.12841796875	48.88835525512695	nan	nan	nan	nan	nan	nan	nan	nan	nan	
